<?xml version="1.0" encoding="iso-8859-1"?>
<!-- Uploaded to: SVG Repo, www.svgrepo.com, Generator: SVG Repo Mixer Tools -->
<svg height="800px" width="800px" version="1.1" id="Layer_1" xmlns="http://www.w3.org/2000/svg" xmlns:xlink="http://www.w3.org/1999/xlink" 
	 viewBox="0 0 512 512" xml:space="preserve">
<polygon style="fill:#7A7674;" points="266.828,238.651 177.703,11.584 227.748,11.584 372.205,238.651 "/>
<path style="fill:#ADA7A4;" d="M487.009,259.036l-13.9-6.687l-6.439-13.637c-18.467-13.187-46.688-23.231-89.544-23.231
	c-136.228,0-313.751,0-313.751,0l-19.822-50.807H11.584v132.109h246.047l-79.928,203.635h50.045
	c20.589-35.357,125.031-196.664,129.545-203.635h143.123C500.416,289.888,497.895,274.552,487.009,259.036z"/>
<g>
	<path style="fill:#11113F;" d="M488.023,242.002c-23.832-25.286-61.145-38.106-110.898-38.106h-13.361
		c-3.803-5.879-10.542-16.302-19.023-29.45C311.133,122.343,252.541,31.141,237.759,5.755C235.685,2.192,231.872,0,227.748,0
		h-50.045c-3.831,0-7.414,1.894-9.572,5.059c-2.157,3.165-2.611,7.191-1.212,10.757l66.391,169.149
		c2.338,5.955,9.06,8.888,15.015,6.551c5.955-2.338,8.888-9.06,6.551-15.015L194.694,23.167h26.461
		c19.046,31.624,72.566,114.923,104.118,163.838c4.083,6.329,7.76,12.025,10.904,16.891H71.29l-16.946-43.434
		c-1.735-4.446-6.019-7.373-10.791-7.373H11.584C5.186,153.089,0,158.276,0,164.673v132.11c0,6.397,5.186,11.584,11.584,11.584
		H240.64l-73.719,187.818c-1.399,3.565-0.945,7.592,1.212,10.757c2.157,3.165,5.741,5.059,9.57,5.059h50.045
		c4.124,0,7.936-2.192,10.011-5.755c18.687-32.09,106.937-168.669,125.836-197.88h136.821c6.398,0,11.584-5.187,11.584-11.584
		C512,283.246,505.72,260.777,488.023,242.002z M357.295,285.198c-3.928,0-7.587,1.99-9.723,5.286
		c-4.236,6.541-99.557,153.753-126.417,198.348h-26.462l73.72-187.819c1.399-3.565,0.945-7.592-1.212-10.757
		c-2.157-3.165-5.741-5.059-9.57-5.059H23.167V176.254h12.471l16.946,43.434c1.735,4.446,6.019,7.373,10.791,7.373h294.081
		c0.006,0,0.013,0.001,0.019,0.001s0.01-0.001,0.016-0.001h19.634c38.246,0,63.394,8.281,79.936,19.134
		c-0.468,1.258-0.737,2.613-0.737,4.033c0,6.397,5.186,11.584,11.584,11.584h6.604c6.839,8.447,10.415,16.903,12.282,23.384h-129.5
		V285.198z"/>
	<path style="fill:#11113F;" d="M189.9,238.648h-11.584c-6.398,0-11.584,5.187-11.584,11.584c0,6.397,5.186,11.584,11.584,11.584
		H189.9c6.398,0,11.584-5.187,11.584-11.584C201.484,243.835,196.296,238.648,189.9,238.648z"/>
	<path style="fill:#11113F;" d="M131.981,238.648h-11.584c-6.398,0-11.584,5.187-11.584,11.584c0,6.397,5.186,11.584,11.584,11.584
		h11.584c6.398,0,11.584-5.187,11.584-11.584C143.565,243.835,138.378,238.648,131.981,238.648z"/>
	<path style="fill:#11113F;" d="M247.818,238.648h-11.584c-6.398,0-11.584,5.187-11.584,11.584c0,6.397,5.186,11.584,11.584,11.584
		h11.584c6.398,0,11.584-5.187,11.584-11.584C259.402,243.835,254.215,238.648,247.818,238.648z"/>
	<path style="fill:#11113F;" d="M421.574,238.648H409.99c-6.398,0-11.584,5.187-11.584,11.584c0,6.397,5.186,11.584,11.584,11.584
		h11.584c6.398,0,11.584-5.187,11.584-11.584C433.158,243.835,427.971,238.648,421.574,238.648z"/>
	<path style="fill:#11113F;" d="M363.656,238.648h-11.584c-6.398,0-11.584,5.187-11.584,11.584c0,6.397,5.186,11.584,11.584,11.584
		h11.584c6.398,0,11.584-5.187,11.584-11.584C375.239,243.835,370.052,238.648,363.656,238.648z"/>
	<path style="fill:#11113F;" d="M305.737,238.648h-11.584c-6.398,0-11.584,5.187-11.584,11.584c0,6.397,5.186,11.584,11.584,11.584
		h11.584c6.398,0,11.584-5.187,11.584-11.584C317.321,243.835,312.134,238.648,305.737,238.648z"/>
</g>
</svg>